# xmcd CD database file
#
# Track frame offsets:
#	150
#	12412
#	30438
#	47671
#	70156
#	83633
#	96890
#	109524
#	131130
#	141642
#	155996
#
# Disc length: 2349 seconds
#
# Revision: 0
# Processed by: cddbd v1.5.1PL2 Copyright (c) Steve Scherf et al.
# Submitted via: CDex 1.51
#
DISCID=95092b0b
DTITLE=Rockin' Tabby Thomas - Blues From The Swamp
DYEAR=2003
DGENRE=Blues
TTITLE0=Little Red Rooster
TTITLE1=Evil Woman Blues
TTITLE2=Strange Feeling
TTITLE3=Blues Singer Prayer
TTITLE4=LaBerta
TTITLE5=Tomorrow
TTITLE6=I Love Big Fat Women
TTITLE7=I'm Catching Hell
TTITLE8=Pop The Whip, I'll Make The Trip
TTITLE9=Don't Say
TTITLE10=Little Old Juke Joint
EXTD=YEAR: 2003
EXTT0=
EXTT1=
EXTT2=
EXTT3=
EXTT4=
EXTT5=
EXTT6=
EXTT7=
EXTT8=
EXTT9=
EXTT10=
PLAYORDER=
